<?xml version="1.0" encoding="utf-8"?>
<!-- Generator: Adobe Illustrator 27.2.0, SVG Export Plug-In . SVG Version: 6.00 Build 0)  -->
<svg version="1.1" xmlns="http://www.w3.org/2000/svg" xmlns:xlink="http://www.w3.org/1999/xlink" x="0px" y="0px"
	 viewBox="0 0 669.8 192.9" style="enable-background:new 0 0 669.8 192.9;" xml:space="preserve">
<style type="text/css">
	.st0{fill:#FDD000;}
</style>
<g id="Creations_Blanc">
</g>
<g id="Creations_Noir">
	<g>
		<path d="M254.1,146.6c2.7,2.6,4.2,5.6,4.5,9h-5.2c-0.6-2.5-1.7-4.6-3.5-6c-1.7-1.5-4.2-2.2-7.3-2.2c-3.8,0-6.9,1.4-9.2,4.1
			c-2.3,2.7-3.5,6.9-3.5,12.6c0,4.6,1.1,8.4,3.2,11.2c2.1,2.9,5.3,4.3,9.5,4.3c3.9,0,6.8-1.5,8.8-4.5c1.1-1.6,1.9-3.7,2.4-6.3h5.2
			c-0.5,4.2-2,7.6-4.6,10.4c-3.1,3.4-7.3,5.1-12.5,5.1c-4.5,0-8.3-1.4-11.4-4.2c-4.1-3.7-6.1-9.3-6.1-17c0-5.8,1.5-10.6,4.6-14.3
			c3.3-4,7.8-6.1,13.6-6.1C247.6,142.6,251.4,144,254.1,146.6z"/>
		<path d="M266.6,143.7h17.9c3,0,5.4,0.4,7.3,1.3c3.6,1.7,5.5,4.8,5.5,9.3c0,2.4-0.5,4.3-1.5,5.8c-1,1.5-2.3,2.7-4.1,3.6
			c1.5,0.6,2.7,1.5,3.5,2.5c0.8,1,1.2,2.7,1.3,5l0.2,5.3c0.1,1.5,0.2,2.6,0.4,3.4c0.3,1.3,0.9,2.1,1.7,2.4v0.9h-6.6
			c-0.2-0.3-0.3-0.8-0.4-1.3s-0.2-1.6-0.3-3.1l-0.3-6.6c-0.1-2.6-1.1-4.3-2.8-5.2c-1-0.5-2.5-0.7-4.7-0.7h-11.8v16.9h-5.3V143.7z
			 M283.9,161.8c2.4,0,4.4-0.5,5.8-1.5c1.4-1,2.1-2.8,2.1-5.4c0-2.8-1-4.7-3-5.7c-1.1-0.5-2.5-0.8-4.3-0.8h-12.7v13.5H283.9z"/>
		<path d="M306.2,143.7h28.6v4.8h-23.4v12H333v4.6h-21.6v13.4h23.8v4.7h-29V143.7z"/>
		<path d="M353.8,143.7h6l14.3,39.5h-5.9l-4.1-11.8h-15.5l-4.3,11.8H339L353.8,143.7z M362.7,167l-6.1-17.4l-6.3,17.4H362.7z"/>
		<path d="M403.6,143.7v4.7h-13.3v34.8H385v-34.8h-13.3v-4.7H403.6z"/>
		<path d="M409.8,143.7h5.4v39.5h-5.4V143.7z"/>
		<path d="M456.3,149.4c2.6,3.5,3.9,8,3.9,13.4c0,5.9-1.5,10.8-4.5,14.7c-3.5,4.6-8.5,6.9-15,6.9c-6.1,0-10.8-2-14.3-6
			c-3.1-3.9-4.6-8.8-4.6-14.7c0-5.3,1.3-9.9,4-13.7c3.4-4.9,8.4-7.3,15.1-7.3C447.8,142.6,453,144.9,456.3,149.4z M451.6,174.5
			c2.1-3.4,3.2-7.3,3.2-11.7c0-4.6-1.2-8.4-3.6-11.2c-2.4-2.8-5.7-4.2-10-4.2c-4.1,0-7.4,1.4-10,4.2c-2.6,2.8-3.9,6.9-3.9,12.4
			c0,4.4,1.1,8.1,3.3,11.1c2.2,3,5.8,4.5,10.8,4.5C446.1,179.6,449.5,177.9,451.6,174.5z"/>
		<path d="M466.6,143.7h6.3l19.7,31.9v-31.9h5.1v39.5h-6l-20-31.8v31.8h-5.1V143.7z"/>
		<path d="M509.8,170.4c0.1,2.2,0.6,4.1,1.5,5.5c1.7,2.6,4.7,3.9,9,3.9c1.9,0,3.7-0.3,5.3-0.9c3.1-1.1,4.6-3.1,4.6-6
			c0-2.1-0.7-3.7-2-4.6c-1.3-0.9-3.4-1.7-6.2-2.3l-5.2-1.2c-3.4-0.8-5.8-1.7-7.2-2.6c-2.4-1.6-3.6-4.1-3.6-7.4
			c0-3.5,1.2-6.5,3.6-8.7c2.4-2.3,5.8-3.4,10.1-3.4c4,0,7.4,1,10.3,3c2.8,2,4.2,5.2,4.2,9.6h-5c-0.3-2.1-0.8-3.7-1.6-4.9
			c-1.6-2.1-4.2-3.1-8-3.1c-3,0-5.2,0.7-6.5,2c-1.3,1.3-2,2.9-2,4.6c0,1.9,0.8,3.3,2.3,4.2c1,0.6,3.3,1.3,6.9,2.1l5.4,1.3
			c2.6,0.6,4.6,1.4,6,2.5c2.4,1.8,3.6,4.5,3.6,8c0,4.4-1.5,7.5-4.6,9.4s-6.7,2.8-10.8,2.8c-4.8,0-8.5-1.3-11.2-3.8
			c-2.7-2.5-4-5.9-4-10.1H509.8z"/>
	</g>
</g>
<g id="Triangle_Noir">
</g>
<g id="Thabora_Blanc">
	<path d="M77.6,73.3"/>
</g>
<g id="Thabora_Noir">
	<path d="M11,33.8c0,0-0.3-2.6,3-8.7c3.4-5.6,4.4-7.6,4.4-7.6s0.7-1.5,6.1-2c5.4-0.5,33.6-2.4,48.4-0.5c7,1.4,4,8,4,8s-1,5-4.5,5.2
		s-20.2-0.6-25.2,0.5c1.3,1.4,5.5,5.8,5.5,5.8L34.1,78c0,0-10.2,27.2-11.3,30.8c-1.1,3.7-5.1,16.1-10.1,16.4
		c-4.1,0.7-3.9-2.1-3.9-2.1s1.4-8.5,2.6-11.9s8.3-27.4,8.9-28.2c0.6-0.8,12.8-36,12.8-36l6.4-17.7l-20,3.3
		C19.5,32.7,11,34.2,11,33.8z"/>
	<g>
		<path d="M355.1,61.3c-7.4-0.6-15.6,1.4-15.6,1.4s3.3-3.4-0.4-6.8c-5.1-2.9-16,5.9-16,5.9s-9.7,7-12.9,14.1
			c-3.1,6.3-5.6,8.7-5.6,8.7s-2.7,4.4-12.6,11.6c-6.2,4.9-7,6.3-7,6.3s-4.7,3.7-9.5,3.2s-5.3-10.3-5.3-10.3l0.2-4.6
			c0,0,7.8-7.5,2.5-15.2c-7.1-4.5-14.6,5.1-14.6,5.1s-4.5,8.4,0.9,12c-6.2,15-13.8,17.8-13.8,17.8s-8.8,5-10.5-2
			c-1.7-7.1,4.4-25.8,4.4-25.8s1.5-4.5,3.5-6.3c2-1.8,16.5-21.2,18.2-25.7c9.6-17.5,11.7-29.1,11.7-29.1s2.3-10.1-4.4-11
			c-4.6-0.2-12.2,6.2-12.2,6.2s-13.7,11-21.4,34.2c-7.1,21-9.5,34.8-9.5,34.8s-6.9,7.3-9,8.2c-4.2,2.7-9.6,7.9-9.9,8.5
			s-12.4,11-17,11.6c-4.3-0.3-2.4-5-2.4-5l8.8-18c0,0,4.1-7.3,1.4-9.7c-2.7-2.4-5.7-4.5-13.2,2.2c-7.1,7.2-18,18.8-25.6,23.4
			c-7,4.9-10.1,5.9-13.6,5.7c-2.9-0.4-3.2-2.9-2.8-3.9c0.5-1,0.4-4.1,6.7-10.4c7.1-8.1,23.8-19.3,36.9-24.2
			c10.5-3.6,12.5-2.6,13.7-5.7c0.5-4.4-8.8-4.5-11.2-3.8c-4.4,0.8-19,6.1-37,18.5c-12.5,9.6-18,14.4-20.7,16.6
			c0,0-10.8,12.3-19.3,14.3c-7.7,1.8-5.8-16.5-5.8-16.5l2-18c0,0-0.4-2.5-5.6-2.2c-6.1,0-13.2,7.5-13.2,7.5s-19.5,22.2-25,32
			c-3.5,6.8-1.1-1.6-1.1-1.6s5-15.8,5.5-16.4c0.5-1.6,5.4-12.8,5.4-12.8s17-15.4,18.5-17.8c2-2.2,16.5-16.4,25-32.5
			c10.9-18.5,6.7-23.2,6.7-23.2s-4.5-5.6-18.1,1.9c-17.4,9.5-29.3,34.6-29.3,34.6S64,74.6,57.9,93.2c0,0-12,8.9-13,11.2
			c-0.7,1.4-1.1,4.2,1.6,4.4c1.8,0.1,2.2-1.7,2.2-1.7l5.1-4.2c0,0-5.6,19.5-3.9,22.3s5.6,6.1,11,2.2c4.7-3.3,7.4-9.1,7.4-9.1
			s10-15,20.5-23.9c0.6,6.5,2,16.5,2,16.5s2.5,15.2,13.8,12.9s20.5-10.7,20.5-10.7s3.8-2.8,5.2-5.4c0.5-0.6,0.9-1,1.1-1.4
			c-2.1,3.2-7.4,12.1-4,16.2c5.6,7.1,17.7,2.1,17.7,2.1s9-2.4,14.5-7.3c5.8-4.2,16.3-13.8,16.3-13.8s-7.2,18.2,2.8,19.4
			c10,1.2,18.8-6.3,18.8-6.3l14.5-11.9l9.8-8.7l-0.2,18.5c0,0,0.9,12.1,11.5,12.4c10.6,0.3,16.9-7.2,16.9-7.2s6.9-6.3,9.3-11.9
			c2.4-5.5,3.6-7.2,3.6-7.2s0.5,11.7,11.8,12.6c14.4-1.8,16.3-7.8,16.3-7.8l0.3-1.2l4.2-3.4c0,0-5,13,0.5,17.7
			c6.1,6.7,20.7,5.4,20.7,5.4s13.6,0.6,30.5-16c12.6-13.2,14.9-25.5,14.9-25.5S369.2,64,355.1,61.3z M257.9,30.1
			c1.7-1,4-1.5,3.2,1.5c-0.3,5-19.8,35.8-19.8,35.8S256.2,31.1,257.9,30.1z M107.1,25.9c9.7-11,10.7-3,10.7-3s-12.5,27.8-36.5,49.5
			c-3.7,3.2-4.5,2.5-4.5,2.5S93.4,40.1,107.1,25.9z M336.3,109.3c-23.2,16.7-23.2-4.2-23.2-4.2s-1.2-10,9.7-22.2
			c0,0,5.5-1.8,10.8-8.3c9-5.2,16.3,1.2,16.3,1.2S359.6,92.6,336.3,109.3z"/>
		<path d="M498.8,100.8c-0.1-0.1-1.6-1.1-3.1-0.4c-1.4,2.4-13,10.3-14,11.1c-1,0.8-5,3-6.4,2.5c-1.3-0.5-3.1-2.3-0.2-7.4
			c3.5-5.4,9.1-19,9.8-20.9s-0.5-5.4-3.7-6.3c-3.1-0.6-5.7-0.5-16,10.2c-10.3,10.8-21.9,18.9-21.9,18.9s-6.8,5.5-11.8,4.4
			c-4.9-1.1-0.9-8-0.9-8s8.2-11.6,22.9-20.8c13.3-9,26.1-11.8,26.1-11.8s6.3-0.9,6.6-4c0.3-3.1-5.8-3.8-5.8-3.8s-5.8-1.5-24.2,7.8
			c-18.4,9.3-35.8,24.7-35.8,24.7l-9.8,9c0,0-3.8,4.6-12.6,9c-9.2,4.2-9.5,3.1-9.5,3.1s13.6-24.4,15.1-33.8
			c1.6-7.8-1.1-13.7-3.5-16.5s-8.5-2.2-8.5-2.2s-7.3,3.4-11.8,6.8c-4.5,3.3,0.7,6.9,0.7,6.9s-8.3,8.5-11.7,11.9
			c-3.4,3.5-8.9,6.7-12.6,10.4c-3.7,3.7-2.9,6-2.9,6c2.8,3.5,9.5-3.8,9.5-3.8l12.3-10.6c0,0,7.1-5.9,10.3-7.9
			c4.6,0.8,4.2,6.2,3.1,9.2c-0.2,3.6-14.2,26.5-14.2,26.5s-4.5,8.5,4,7.1c11.7-0.7,22.1-7.7,25.5-9.2c3.8-1.7,14.8-11.6,13.7-10.6
			c-0.9,1.3-3.2,6-3.8,7.6s-2.5,9.1,8.1,10.3c12.9,0.5,19.8-5.9,23.9-8.2c5-2.6,16.2-13.6,17.2-14.2c-1.3,3.4-2,7.7-2.5,13.2
			c-0.4,5.5,8.2,9.6,18.2,3.2c10.6-4.9,19.3-15.4,20.1-16.5S498.8,100.9,498.8,100.8z"/>
	</g>
	<polygon class="st0" points="533.9,120.4 598.3,40.5 663.4,120.4 	"/>
	<path d="M77.6,73.6"/>
	<g>
		<path d="M511.9,109.7c-6.7,0-12.2,5.4-12.2,12.1c0,6.7,5.4,12.1,12.2,12.1c6.7,0,12.2-5.4,12.2-12.1
			C524,115.1,518.6,109.7,511.9,109.7z M511.9,132c-5.6,0-10.2-4.5-10.2-10.1c0-5.6,4.6-10.1,10.2-10.1c5.6,0,10.2,4.5,10.2,10.1
			C522,127.4,517.5,132,511.9,132z"/>
		<path d="M512.9,122.7c0.5,0,3.6-0.6,3.6-3.8c-0.3-3.2-3.7-3.4-3.7-3.4h-6.3v12.9l2.1,0l0.1-5.6c0,0,1.2,0,2.1,0.1
			c1.1,0.2,2.2,2.1,2.2,2.1l1.8,3.3c0,0,1.9,0.1,2.5,0C514.4,123.2,513.8,123,512.9,122.7z M508.7,121.2v-4h3.7c0,0,2.1,0.2,2,2
			c-0.1,2-2,2-2,2H508.7z"/>
	</g>
</g>
</svg>
